<?xml version="1.0" encoding="utf-8"?>
<!-- Generator: Adobe Illustrator 28.2.0, SVG Export Plug-In . SVG Version: 6.00 Build 0)  -->
<svg version="1.1" id="_图层_1" xmlns="http://www.w3.org/2000/svg" xmlns:xlink="http://www.w3.org/1999/xlink" x="0px" y="0px"
	 viewBox="0 0 200 200" style="enable-background:new 0 0 200 200;" xml:space="preserve">
<style type="text/css">
	.st0{fill:#346AD7;}
	.st1{fill:#98BBF6;}
</style>
<path class="st0" d="M100,198.4c-54.3,0-98.4-44.1-98.4-98.4C1.6,45.6,45.7,1.6,100,1.6s98.4,44.1,98.4,98.4
	C198.4,154.4,154.3,198.4,100,198.4C100,198.4,100,198.4,100,198.4z M99.8,19.2c-44.5,0-80.6,36.1-80.6,80.7
	c0,44.5,36.1,80.6,80.7,80.6c44.5,0,80.6-36.1,80.6-80.6S144.4,19.2,99.8,19.2L99.8,19.2L99.8,19.2L99.8,19.2z"/>
<rect x="91" y="82.1" class="st1" width="17.9" height="71.6"/>
<rect x="91" y="46.4" class="st1" width="17.9" height="17.9"/>
</svg>
