<?xml version="1.0" encoding="utf-8"?>
<!-- Generator: Adobe Illustrator 28.2.0, SVG Export Plug-In . SVG Version: 6.00 Build 0)  -->
<svg version="1.1" id="_图层_1" xmlns="http://www.w3.org/2000/svg" xmlns:xlink="http://www.w3.org/1999/xlink" x="0px" y="0px"
	 viewBox="0 0 200 200" style="enable-background:new 0 0 200 200;" xml:space="preserve">
<style type="text/css">
	.st0{fill:#346AD7;}
	.st1{fill:#98BBF6;}
	.st2{fill:#FFFFFF;}
</style>
<path class="st0" d="M50.8,57c0,27.2,21.9,49.2,49.1,49.3c27.2,0,49.2-21.9,49.3-49.1V57c0-27.2-21.9-49.2-49.1-49.3
	c-27.2,0-49.2,21.9-49.3,49.1C50.8,56.8,50.8,57,50.8,57z"/>
<path class="st0" d="M121.9,159.6c0,0,0-0.1,0-0.2c0-15.1,9.1-28,22-33.8c-9.6-4.5-20.3-7.1-31.6-7.1H87.7
	c-40.7,0-73.8,33-73.8,73.8h127.3c-11.6-6.3-19.4-18.6-19.4-32.7L121.9,159.6z"/>
<path class="st1" d="M120.3,159.7c0,20.5,16.5,37.2,37,37.2s37.2-16.5,37.2-37c0,0,0-0.1,0-0.2c0-20.5-16.5-37.2-37-37.2
	s-37.2,16.5-37.2,37C120.3,159.5,120.3,159.6,120.3,159.7z"/>
<path class="st2" d="M157.6,144.6c-1.8,0-3.2-0.5-4.1-1.5c-1-1-1.5-2.3-1.5-3.7s0.5-2.7,1.5-3.7s2.4-1.5,4.1-1.5s3.2,0.5,4.1,1.5
	c1,1,1.5,2.3,1.5,3.7s-0.5,2.7-1.4,3.7C160.8,144.1,159.5,144.6,157.6,144.6L157.6,144.6z M152.3,185.9v-34.5h10.6v34.5H152.3z"/>
</svg>
