<?xml version="1.0" encoding="utf-8"?>
<!-- Generator: Adobe Illustrator 28.2.0, SVG Export Plug-In . SVG Version: 6.00 Build 0)  -->
<svg version="1.1" id="_图层_1" xmlns="http://www.w3.org/2000/svg" xmlns:xlink="http://www.w3.org/1999/xlink" x="0px" y="0px"
	 viewBox="0 0 200 200" style="enable-background:new 0 0 200 200;" xml:space="preserve">
<style type="text/css">
	.st0{fill:#346AD7;}
	.st1{fill:#98BBF6;}
</style>
<path class="st0" d="M175.6,77c-4.2-2.6-8.6-4.8-13.2-6.5c6.4-1.5,12.4-4.3,17.8-8.1c17.2-13.4,15.4-33.8-4.5-46.5
	c-27.7-17.6-78.1-17.5-89.9,14c-1.1,3.7-1.4,7.6-0.8,11.4c0.5,3.3,1.7,6.4,3.6,9.1c5.6,8.3,13.7,14.5,23.2,17.8
	C99.9,72.1,90.2,79.4,85.9,91c-1.1,3.7-1.4,7.6-0.8,11.4c0.5,3.3,1.7,6.4,3.6,9.1c6,9.7,16.2,15.9,27.8,19.4
	c-13.9,3.2-25.7,10.9-30.5,24c-1.1,3.7-1.4,7.6-0.8,11.4c0.5,3.3,1.7,6.4,3.6,9.1c17.6,28.1,71,28,91.5,12
	c17.2-13.4,15.4-33.8-4.5-46.5c-5.7-3.6-11.8-6.3-18.3-8.2c8.2-1.3,16-4.5,22.8-9.3C197.4,110.2,195.6,89.7,175.6,77L175.6,77
	L175.6,77z M119.3,24.7c2.3-3.4,5.2-6.4,8.6-8.8c4.3-3.4,10.2-3.8,15-1.1c4.1,2.4,7.7,4.5,9.5,7.7c4.8,7.8,7.6,16.7,8.1,25.8
	c0,5.7-5.4,13.8-10.7,16.4c-1.7,0.8-3.5,1.2-5.3,1.3c-2.9-0.4-5.8-0.7-8.6-0.8c-1.9-0.5-3.8-1.1-5.6-2
	C120.5,58.2,113.9,34.2,119.3,24.7L119.3,24.7z M149.8,189.9c-5.2,2.6-14.1,1.4-19.6-1.5c-9.7-5-16.3-29.1-10.9-38.6
	c2.3-3.4,5.2-6.4,8.6-8.8c4.3-3.3,10.3-3.7,15-0.9c4.1,2.4,7.7,4.5,9.5,7.7c4.8,7.8,7.6,16.6,8.1,25.7
	C160.6,179.2,155,187.3,149.8,189.9L149.8,189.9L149.8,189.9z M149.8,125.9c-5.2,2.5-14.1,1.4-19.6-1.5c-9.7-5-16.3-29.2-10.9-38.6
	c2.3-3.4,5.2-6.4,8.6-8.8c4.3-3.4,10.2-3.8,15-1.1c4.1,2.4,7.7,4.5,9.5,7.7c4.8,7.8,7.6,16.7,8.1,25.8
	C160.6,115.2,155,123.4,149.8,125.9L149.8,125.9L149.8,125.9z"/>
<path class="st1" d="M16.6,20.9v99.2c5.5-7.3,9.6-10.7,14.1-13.6c4.2-2.7,10.5-4.6,15.7-4.6s11.3,1.5,15.7,5.7
	c4,3.8,5.9,10.1,5.9,16.2c0,9.4-4.4,18.3-11.3,25.4c-7.5,7.8-14.2,13-26.6,21.2c-6.5,4.2-10.3,7.1-13.8,10.1H9.9V20.9
	C9.9,20.9,16.6,20.9,16.6,20.9z M16.6,173.1c12.4-9.6,21.2-18,26-25c5-7.1,7.5-12.4,7.5-22c0-3.8-1.9-7.3-4.4-9.6
	c-2.7-2.3-5.2-2.7-8.6-2.7c-5,0-13.2,4.2-20.5,14.7L16.6,173.1L16.6,173.1z"/>
</svg>
