<?xml version="1.0" encoding="utf-8"?>
<!-- Generator: Adobe Illustrator 28.2.0, SVG Export Plug-In . SVG Version: 6.00 Build 0)  -->
<svg version="1.1" id="_图层_1" xmlns="http://www.w3.org/2000/svg" xmlns:xlink="http://www.w3.org/1999/xlink" x="0px" y="0px"
	 viewBox="0 0 200 200" style="enable-background:new 0 0 200 200;" xml:space="preserve">
<style type="text/css">
	.st0{fill:#346AD7;}
	.st1{fill:#98BBF6;}
</style>
<path class="st0" d="M100.4,2.5c-54,0-97.7,43.8-97.7,97.7S46.4,198,100.4,198s97.7-43.8,97.7-97.7S154.3,2.5,100.4,2.5z M100.4,17
	c46,0,83.3,37.3,83.3,83.3s-37.3,83.3-83.3,83.3s-83.3-37.3-83.3-83.3S54.4,17,100.4,17z"/>
<path class="st1" d="M100.4,42.3c4,0,7.2,3.2,7.2,7.2c0,4-3.2,7.2-7.1,7.2l-0.1,0c-24,0-43.4,19.4-43.4,43.4s19.4,43.4,43.4,43.4
	c23.7,0,43-19.1,43.4-42.7l0-0.7c0-4,3.2-7.2,7.2-7.2s7.2,3.2,7.2,7.2c0,32-25.9,57.9-57.9,57.9s-57.9-25.9-57.9-57.9
	S68.4,42.3,100.4,42.3z"/>
<path class="st0" d="M118.5,69.5c0,7,5.7,12.7,12.7,12.7c7,0,12.7-5.7,12.7-12.7s-5.7-12.7-12.7-12.7
	C124.1,56.8,118.5,62.5,118.5,69.5L118.5,69.5z"/>
</svg>
