<?xml version="1.0" encoding="utf-8"?>
<!-- Generator: Adobe Illustrator 28.2.0, SVG Export Plug-In . SVG Version: 6.00 Build 0)  -->
<svg version="1.1" id="_图层_1" xmlns="http://www.w3.org/2000/svg" xmlns:xlink="http://www.w3.org/1999/xlink" x="0px" y="0px"
	 viewBox="0 0 200 200" style="enable-background:new 0 0 200 200;" xml:space="preserve">
<style type="text/css">
	.st0{fill:#346AD7;}
	.st1{fill:#98BBF6;}
</style>
<path class="st0" d="M143.7,179.4c24-24,28.3-48.1,14.1-74.2l-24-41.7c-2.1-2.8-4.9-4.9-8.5-5.7c-2.1-0.7-4.2,0-6.4,1.4
	c-4.2,3.5-4.9,8.5-2.1,14.8l12,25.4c0.7,2.1,0,4.2-2.1,4.9c-1.4,0.7-2.8,0-4.2-0.7L59.6,40.9c-3.5-3.5-9.9-3.5-13.4,0.7
	c-3.5,3.5-3.5,9.2,0,12.7l37.5,37.5c1.4,1.4,1.4,3.5,0,4.9s-3.5,1.4-4.9,0L41.2,59.2l-9.9-10.6c-3.5-3.5-9.9-3.5-13.4,0
	c-3.5,3.5-3.5,9.9,0,13.4l10.6,10.6L66,110.1c1.4,1.4,1.4,3.5,0,4.9c-0.7,0.7-1.4,0.7-2.8,0.7c-0.7,0-2.1-0.7-2.8-0.7L23.6,77.6
	c-3.5-3.5-9.9-3.5-13.4,0s-3.5,9.9,0,13.4l16.3,15.5l23.3,23.3c1.4,1.4,1.4,3.5,0,4.9c-0.7,0.7-1.4,0.7-2.8,0.7
	c-0.7,0-2.1-0.7-2.8-0.7l-23.3-23.3c-3.5-3.5-9.9-3.5-13.4,0c-1.4,1.4-2.1,4.2-2.1,6.4c0,2.8,0.7,4.9,2.8,6.4l45.2,45.2
	C78,194.9,115.4,207.6,143.7,179.4L143.7,179.4z"/>
<polygon class="st1" points="134.9,9.6 120.2,11.6 130.3,35.6 134.9,9.6 "/>
<path class="st1" d="M190.2,34l-10.9-10.1l-10.7,24C168,47.7,190.2,34,190.2,34L190.2,34z"/>
<polygon class="st1" points="151.1,35.6 151.5,11.2 164.9,15.5 "/>
<path class="st1" d="M73.8,44.4L114,84.7l-3.5-7.1c-3.5-7.8-2.8-14.8,1.4-20.5L88.6,33.8c-3.5-3.5-9.9-3.5-13.4,0
	c-2.1,1.4-2.8,4.2-2.8,6.4C73,41.6,73,43,73.8,44.4L73.8,44.4z"/>
<path class="st1" d="M188.2,100.9l-25.4-45.2c-2.1-2.8-4.9-4.9-8.5-5.7c-2.1-0.7-4.2,0-6.4,1.4c-4.2,3.5-4.9,8.5-2.1,14.8l8.5,18.4
	l9.9,17.7c15.5,29,10.6,56.5-14.8,82.7c-2.1,2.1-3.5,3.5-5.7,4.9c9.9-0.7,20.5-4.9,30.4-14.8C200.2,147.6,198.8,119.3,188.2,100.9
	L188.2,100.9z"/>
</svg>
