<?xml version="1.0" encoding="utf-8"?>
<!-- Generator: Adobe Illustrator 28.2.0, SVG Export Plug-In . SVG Version: 6.00 Build 0)  -->
<svg version="1.1" id="_图层_1" xmlns="http://www.w3.org/2000/svg" xmlns:xlink="http://www.w3.org/1999/xlink" x="0px" y="0px"
	 viewBox="0 0 200 200" style="enable-background:new 0 0 200 200;" xml:space="preserve">
<style type="text/css">
	.st0{fill:#346AD7;}
	.st1{fill:#98BBF6;}
</style>
<path class="st0" d="M74.7,38.4C45,38.4,21.2,62,21.2,90.9c0,8,3.4,14.3,8.6,21c1.8,2.2,3.5,4.3,5.3,6.4c1,1.2,2.1,2.5,3.3,3.9
	c2.9,3.5,6,7.5,8.2,11.9c5.4,10.4,7.5,19.2,9.6,27.5l0.7,2.7c2.7,10.2,12,17.1,22.6,16.9c11.5,0,17-4.4,20.1-9.4
	c3.5-5.6,4.6-13.1,4.6-19.5h17.8c0,7.8-1.3,19.2-7.4,28.9c-6.5,10.4-17.8,17.8-35.2,17.8c-24.5,0-36.8-18.3-39.9-30.3L39,166
	c-2.1-8.4-3.8-15.3-8.2-23.8c-1.3-2.6-3.4-5.3-6.1-8.6c-0.8-1-1.7-2.1-2.7-3.2c-2-2.4-4.2-5-6.2-7.5c-6.2-8-12.4-18.2-12.4-32
	c0-39,32.1-70.3,71.4-70.3s71.4,31.3,71.4,70.3h-17.8C128.3,62,104.5,38.4,74.7,38.4z"/>
<path class="st0" d="M74.7,69.6c-12.3,0-22.3,10-22.3,22.3l0,0H34.6c0-22.2,18-40.2,40.2-40.2s40.2,18,40.2,40.2
	c0,4.9-4,8.9-8.9,8.9c-1.4,0-2.8-0.3-4-0.9c-1.9-1-3.8-1.8-5.9-2.4c-2.1-0.6-5.2-1.1-10.2-1.1c-1.7,0-3.4,0.4-4.9,1.2
	c-3.5,1.8-6.2,5.9-6.2,12.2c0,4,2.2,7.3,5.6,10.1c1.7,1.3,3.3,2.3,4.6,3c3.2,1.7,7.6,2.5,7.6,11.4v20.1H74.7v-16.8
	c-2-1.1-3.8-2.4-5.6-3.9c-5.5-4.5-12.2-12.4-12.2-23.9c0-13.4,7.1-24.5,17.8-29c0.7-0.3,1.5-0.6,2.2-0.8c4.5-1.4,6.7-1.4,8.9-1.4
	c2.5,0,4.8,0.1,6.9,0.3C88.6,73.1,81.9,69.6,74.7,69.6z"/>
<path class="st1" d="M190.7,45c-7.4-11.5-16.8-17.5-25.4-24s-9.9-16.9-9.9-16.9v0.7c0-2-1.6-3.4-3.6-3.4c-2,0-3.6,1.6-3.6,3.6v99.7
	c-7-5-18.2-5.8-28.8-0.9c-14.1,6.5-21.3,20.4-16.4,31c4.9,10.6,20.4,14.1,34.2,7.6c9.2-4.3,15.2-11.8,17.3-19.5
	c0.2-0.9,0.5-4,0.5-4.7V36.5c0.2,0,43.4,3.8,35.3,45.2C200.8,72.9,198.1,56.5,190.7,45L190.7,45z"/>
</svg>
