<?xml version="1.0" encoding="utf-8"?>
<!-- Generator: Adobe Illustrator 28.2.0, SVG Export Plug-In . SVG Version: 6.00 Build 0)  -->
<svg version="1.1" id="_图层_1" xmlns="http://www.w3.org/2000/svg" xmlns:xlink="http://www.w3.org/1999/xlink" x="0px" y="0px"
	 viewBox="0 0 200 200" style="enable-background:new 0 0 200 200;" xml:space="preserve">
<style type="text/css">
	.st0{fill:#98BBF6;}
	.st1{fill:#346AD7;}
</style>
<path class="st0" d="M183.3,14.9c-8.4,0-15.5,7.1-15.5,15.6v6.4h31v-6.4c0.1-8.5-6.8-15.5-15.3-15.6
	C183.4,14.9,183.3,14.9,183.3,14.9L183.3,14.9z M167.8,40.4h31v128.5h-31V40.4z M183.3,189.4l14.4-18.1h-29.2L183.3,189.4z"/>
<path class="st1" d="M127.3,12.1H30.5c-15.8,0-28.9,13.1-28.9,29v122.1c0,15.9,13,29,28.9,29h96.8c15.8,0,28.9-13.1,28.9-29V41.1
	C156.2,25.2,143.2,12.1,127.3,12.1L127.3,12.1z M49.5,149.8H37.2v-11.7h12.3V149.8z M49.5,108.7H37.2V97h12.3V108.7z M49.5,67.7
	H37.2V56h12.3C49.5,56,49.5,67.7,49.5,67.7z M120.6,149.8H59v-11.7h61.2v11.7H120.6L120.6,149.8z M120.6,108.7H59V97h61.2v11.7
	H120.6L120.6,108.7z M120.6,67.7H59V56h61.2v11.7L120.6,67.7L120.6,67.7z"/>
</svg>
