<?xml version="1.0" encoding="utf-8"?>
<!-- Generator: Adobe Illustrator 28.2.0, SVG Export Plug-In . SVG Version: 6.00 Build 0)  -->
<svg version="1.1" id="_图层_1" xmlns="http://www.w3.org/2000/svg" xmlns:xlink="http://www.w3.org/1999/xlink" x="0px" y="0px"
	 viewBox="0 0 200 200" style="enable-background:new 0 0 200 200;" xml:space="preserve">
<style type="text/css">
	.st0{fill:#346AD7;}
	.st1{fill:#98BBF6;}
</style>
<path class="st0" d="M100.5,196.8C47,196.8,3.7,153.5,3.7,100S47,3.2,100.5,3.2s96.8,43.3,96.8,96.8S154,196.8,100.5,196.8z
	 M100.5,18.5C55.5,18.5,19,55,19,100s36.5,81.5,81.5,81.5S182,145,182,100S145.5,18.5,100.5,18.5z"/>
<path class="st1" d="M47,153.5l33.1-73.9L154,46.5l-33.1,73.9L47,153.5z M87.7,87.3l-22.9,48.4l48.4-22.9
	C113.2,112.8,87.7,87.3,87.7,87.3z"/>
<circle class="st1" cx="19.4" cy="18.3" r="12.7"/>
<circle class="st1" cx="182" cy="181.5" r="12.7"/>
</svg>
