<?xml version="1.0" encoding="utf-8"?>
<!-- Generator: Adobe Illustrator 28.2.0, SVG Export Plug-In . SVG Version: 6.00 Build 0)  -->
<svg version="1.1" id="_图层_1" xmlns="http://www.w3.org/2000/svg" xmlns:xlink="http://www.w3.org/1999/xlink" x="0px" y="0px"
	 viewBox="0 0 200 200" style="enable-background:new 0 0 200 200;" xml:space="preserve">
<style type="text/css">
	.st0{fill:#98BBF6;}
	.st1{fill:#346AD7;}
</style>
<path class="st0" d="M21.4,20.8v105.1c6.4-7.7,11-11.3,16.3-14.4c4.9-2.8,12.1-4.9,18.1-4.9s13,1.6,18.1,6.1
	c4.6,4,6.9,10.7,6.9,17.2c0,9.9-5.1,19.4-13,26.9c-8.6,8.3-16.3,13.8-30.7,22.5c-7.5,4.5-11.9,7.5-15.9,10.7h-7.5V20.8
	C13.7,20.8,21.4,20.8,21.4,20.8z M21.4,182c14.4-10.1,24.5-19,30-26.5c5.7-7.5,8.6-13.2,8.6-23.3s-2.2-7.7-5.1-10.1
	c-3.1-2.4-6-2.8-9.9-2.8c-5.7,0-15.2,4.5-23.6,15.6V182L21.4,182L21.4,182z"/>
<path class="st1" d="M155.6,76.7L134.9,84v39.4l20.7-7.3V76.7z M160.3,7.5c3.1,0,4.7,1.6,4.7,4.7V48l8-2.9c0.2-0.2,0.8-0.3,1.7-0.3
	s2.4,0.5,3.7,1.6c0.9,0.9,1.4,2,1.4,3.4v14.8c0,2.2-1.1,3.8-3.4,4.7L165,73.2v39.4l8-2.6c0.2-0.2,0.8-0.3,1.7-0.3s2.4,0.5,3.7,1.6
	c0.9,0.9,1.4,2,1.4,3.4v14.8c0,2.2-1.1,3.7-3.4,4.4l-11.4,4.4v38.9c0,2.9-1.6,4.4-4.7,4.4s-4.7-1.5-4.7-4.4v-35.8l-20.7,7.8v38.9
	c0,3.1-1.6,4.7-4.7,4.7c-3.1,0-4.7-1.6-4.7-4.7v-35.8l-7.7,2.9c-0.2,0.2-0.9,0.3-2,0.3c-1.3,0-2.6-0.5-3.4-1.4c-1-1-1.5-2.2-1.4-3.5
	v-14.8c0-2.4,1-4,3.1-4.7l11.4-3.9V87.8l-7.7,2.6c-0.2,0.2-0.9,0.3-2,0.3c-1.3,0-2.6-0.5-3.4-1.4c-1-1-1.5-2.2-1.4-3.5V71
	c0-2.2,1-3.7,3.1-4.4l11.4-4.4V23c0-2.9,1.6-4.4,4.7-4.4c3.1,0,4.7,1.5,4.7,4.4v35.8l20.7-7.8V12.2C155.6,9.1,157.2,7.5,160.3,7.5
	L160.3,7.5z"/>
</svg>
