<?xml version="1.0" encoding="utf-8"?>
<!-- Generator: Adobe Illustrator 28.2.0, SVG Export Plug-In . SVG Version: 6.00 Build 0)  -->
<svg version="1.1" id="_图层_1" xmlns="http://www.w3.org/2000/svg" xmlns:xlink="http://www.w3.org/1999/xlink" x="0px" y="0px"
	 viewBox="0 0 200 200" style="enable-background:new 0 0 200 200;" xml:space="preserve">
<style type="text/css">
	.st0{fill:#346AD7;}
	.st1{fill:#98BBF6;}
</style>
<path class="st0" d="M194.7,196.9H5.3v-88.7h189.3L194.7,196.9L194.7,196.9z M17.2,184.3h165.6v-62.6H17.2V184.3z"/>
<path class="st0" d="M40.9,108.1h11.8v82.8H40.9C40.9,190.9,40.9,108.1,40.9,108.1z M76.4,108.1h11.8v82.8H76.4
	C76.4,190.9,76.4,108.1,76.4,108.1z M111.8,108.1h11.8v82.8h-11.8C111.8,190.9,111.8,108.1,111.8,108.1z M147.3,108.1h11.8v82.8
	h-11.8C147.3,190.9,147.3,108.1,147.3,108.1z"/>
<path class="st0" d="M171,108.1h23.7v47.3H171C171,155.4,171,108.1,171,108.1z M105.9,108.1h23.7v47.3h-23.7
	C105.9,155.4,105.9,108.1,105.9,108.1z M70.4,108.1h23.7v47.3H70.4C70.4,155.4,70.4,108.1,70.4,108.1z M34.9,108.1h23.7v47.3H34.9
	C34.9,155.4,34.9,108.1,34.9,108.1z"/>
<g>
	<path class="st1" d="M8.5,92.5V11.9h19.7l11.9,55l11.7-55h19.8v80.6H59.3V29l-13,63.5H33.6L20.7,29v63.5H8.4H8.5z"/>
	<path class="st1" d="M84.3,92.5V11.9h13.2v80.6H84.3z"/>
	<path class="st1" d="M110,11.9h24.1c5.4,0,9.6,0.5,12.4,1.5c3.8,1.4,7.1,3.9,9.8,7.4c2.7,3.6,4.8,7.9,6.2,13.1s2.1,11.5,2.1,19.1
		s-0.7,12.4-2,17.2c-1.6,5.9-4,10.6-7,14.2c-2.3,2.8-5.4,4.9-9.3,6.4c-2.9,1.1-6.8,1.7-11.7,1.7h-24.8V11.9H110z M123.2,25.5v53.4
		h9.8c3.7,0,6.3-0.3,8-0.8c2.1-0.7,3.9-1.8,5.3-3.4c1.4-1.6,2.6-4.2,3.5-7.8c0.9-3.6,1.3-8.5,1.3-14.8s-0.4-11-1.3-14.4
		c-0.9-3.3-2.1-5.9-3.7-7.8c-1.6-1.9-3.6-3.1-6.1-3.8c-1.8-0.5-5.5-0.8-10.8-0.8h-5.9L123.2,25.5z"/>
	<path class="st1" d="M175.6,92.5V11.9h13.2v80.6H175.6z"/>
</g>
</svg>
