<?xml version="1.0" encoding="utf-8"?>
<!-- Generator: Adobe Illustrator 28.2.0, SVG Export Plug-In . SVG Version: 6.00 Build 0)  -->
<svg version="1.1" id="_图层_1" xmlns="http://www.w3.org/2000/svg" xmlns:xlink="http://www.w3.org/1999/xlink" x="0px" y="0px"
	 viewBox="0 0 200 200" style="enable-background:new 0 0 200 200;" xml:space="preserve">
<style type="text/css">
	.st0{fill:#98BBF6;}
	.st1{fill:#346AD7;}
</style>
<path class="st0" d="M178.3,91.6l-14.6,9.7l-64.3,42.5l-63.1-42.5l-14.6-9.7l-14.6,9.7L99.3,162l92.2-60.7l-13.3-9.7l0,0L178.3,91.6
	z"/>
<path class="st0" d="M99.4,177.8l-63.1-41.2l-14.6-9.7l-14.6,9.7l92.2,60.7l92.2-60.7l-14.6-9.7l-13.3,9.7l-64.3,41.2l0,0H99.4z"/>
<path class="st1" d="M192.8,63.7L99.4,3.1L7.2,63.7l92.2,60.7L192.8,63.7L192.8,63.7z M99.4,22.5l64.3,41.3l-64.3,42.5L36.3,63.8
	C36.3,63.8,99.4,22.5,99.4,22.5z"/>
</svg>
