<?xml version="1.0" encoding="utf-8"?>
<!-- Generator: Adobe Illustrator 28.2.0, SVG Export Plug-In . SVG Version: 6.00 Build 0)  -->
<svg version="1.1" id="图层_1" xmlns:serif="http://www.serif.com/"
	 xmlns="http://www.w3.org/2000/svg" xmlns:xlink="http://www.w3.org/1999/xlink" x="0px" y="0px" viewBox="0 0 300 300"
	 style="enable-background:new 0 0 300 300;" xml:space="preserve">
<style type="text/css">
	.st0{fill:#346AD7;}
	.st1{fill:#98BBF6;}
</style>
<g transform="matrix(0.186523,0,0,0.186523,5.24024,4.69457)">
	<g id="图层2">
		<path class="st0" d="M1132.9,1035.6c99.3,0,180,80.7,180,180v18H1490c32.9,0,60,27.1,60,60c0,32.9-27.1,60-60,60h-177.1v15
			c0,99.3-80.7,180-180,180c-99.2,0-180-80.7-180-180v-153C952.9,1116.3,1033.7,1035.6,1132.9,1035.6z M1132.9,1155.6
			c-33.1,0-60,26.9-60,60v153c0,33.1,26.9,60,60,60c33.1,0,60-26.9,60-60v-153C1192.9,1182.5,1166,1155.6,1132.9,1155.6z M605,519.6
			c99.3,0,180,80.7,180,180v20.6h705c32.9,0,60,27.1,60,60c0,32.9-27.1,60-60,60H785v15.4c0,99.3-80.7,180-180,180
			s-180-80.7-180-180v-156C425,600.3,505.8,519.6,605,519.6z M605,639.6c-33.1,0-60,26.9-60,60v156c0,33.1,26.9,60,60,60
			s60-26.9,60-60v-156C665,666.5,638.1,639.6,605,639.6z M1133,12.6c99.3,0,180,80.7,180,180v18h177c32.9,0,60,27.1,60,60
			s-27.1,60-60,60h-177v15c0,99.3-80.7,180-180,180c-99.3,0-180-80.7-180-180v-153C953,93.3,1033.8,12.6,1133,12.6z M1133,132.6
			c-33.1,0-60,26.9-60,60v153c0,33.1,26.9,60,60,60c33.1,0,60-26.9,60-60v-153C1193,159.5,1166.1,132.6,1133,132.6z"/>
	</g>
</g>
<g transform="matrix(0.186523,0,0,0.186523,5.24024,4.69457)">
	<path class="st1" d="M772.9,1233.6c32.9,0,60,27.1,60,60c0,32.9-27.1,60-60,60H74c-32.9,0-60-27.1-60-60c0-32.9,27.1-60,60-60
		H772.9z M245,720.2c32.9,0,60,27.1,60,60c0,32.9-27.1,60-60,60H74c-32.9,0-60-27.1-60-60c0-32.9,27.1-60,60-60H245z M773,210.6
		c32.9,0,60,27.1,60,60s-27.1,60-60,60H74c-32.9,0-60-27.1-60-60s27.1-60,60-60H773z"/>
</g>
</svg>
