<?xml version="1.0" encoding="utf-8"?>
<!-- Generator: Adobe Illustrator 28.2.0, SVG Export Plug-In . SVG Version: 6.00 Build 0)  -->
<svg version="1.1" id="图层_1" xmlns:serif="http://www.serif.com/"
	 xmlns="http://www.w3.org/2000/svg" xmlns:xlink="http://www.w3.org/1999/xlink" x="0px" y="0px" viewBox="0 0 300 300"
	 style="enable-background:new 0 0 300 300;" xml:space="preserve">
<style type="text/css">
	.st0{fill:#346AD7;}
	.st1{fill:#98BBF6;}
</style>
<g transform="matrix(0.225361,0,0,0.225361,-15.3846,-15.7523)">
	<path class="st0" d="M411.8,1206.3l-241.2-177.6c-11.2-8.2-27.2-1.3-28.7,12.5c-11.7,104.2-30.4,274.3-31.9,288.6
		c-1.9,18,15.5,31.1,32.2,23.8c18-7.8,171.9-75,266.1-116.1C421.1,1232,423.1,1214.7,411.8,1206.3z M723.8,201.6l305.7,225
		c8,6,19.4,4.4,25.2-3.8l8.2-11.2c20.8-28.4,44.8-98.4,16.3-119.3L847.6,121.7c-28.3-21-98.4,15.2-119.4,43.5l-8.2,11.2
		C714.1,184.4,715.7,195.8,723.8,201.6z M972.7,492.8L667.1,267.6c-7.9-6-19.3-4.2-25.2,3.8l-457.4,642c-6,7.9-4.2,19.3,3.8,25.2
		l305.9,225.1c7.9,6,19.3,4.2,25.2-3.8l457.4-642C982.6,509.9,980.9,498.6,972.7,492.8z"/>
</g>
<g transform="matrix(0.225361,0,0,0.225361,-15.3846,-15.7523)">
	<path class="st1" d="M906.1,1050.9c0,29.8,20.1,54.2,44.7,54.2h356.9c24.8,0,44.7-24.2,44.7-54.2c0-29.7-20.1-53.9-44.7-53.9H950.8
		C926.2,996.9,906.1,1021.2,906.1,1050.9z M1313.3,1246.5H600.2c-24.6,0-44.5,24-44.5,54c0,29.8,19.9,54,44.5,54h713.1
		c24.6,0,44.6-24.2,44.6-54C1357.9,1270.5,1337.9,1246.5,1313.3,1246.5z"/>
</g>
</svg>
